<?xml version="1.0" encoding="UTF-8" standalone="no"?>
<svg
   xmlns:dc="http://purl.org/dc/elements/1.1/"
   xmlns:cc="http://creativecommons.org/ns#"
   xmlns:rdf="http://www.w3.org/1999/02/22-rdf-syntax-ns#"
   xmlns:svg="http://www.w3.org/2000/svg"
   xmlns="http://www.w3.org/2000/svg"
   viewBox="0 0 508 212.42667"
   height="212.42667"
   width="508"
   xml:space="preserve"
   id="svg2"
   version="1.1"><metadata
     id="metadata8"><rdf:RDF><cc:Work
         rdf:about=""><dc:format>image/svg+xml</dc:format><dc:type
           rdf:resource="http://purl.org/dc/dcmitype/StillImage" /></cc:Work></rdf:RDF></metadata><defs
     id="defs6"><clipPath
       id="clipPath20"
       clipPathUnits="userSpaceOnUse"><path
         id="path18"
         d="m 0,0.16 h 381 v 159 H 0 Z" /></clipPath></defs><g
     transform="matrix(1.3333333,0,0,-1.3333333,0,212.42667)"
     id="g10"><g
       id="g12" /><g
       id="g14"><g
         clip-path="url(#clipPath20)"
         id="g16"><g
           transform="matrix(3.2,0,0,3.2,-489.656,-1970.285)"
           id="g22"><text
             id="text26"
             style="font-variant:normal;font-weight:normal;font-size:9.96259975px;font-family:MSBM10;-inkscape-font-specification:MSBM10;writing-mode:lr-tb;fill:#000000;fill-opacity:1;fill-rule:nonzero;stroke:none"
             transform="matrix(1,0,0,-1,153.002,653.483)"><tspan
               id="tspan24"
               y="0"
               x="0">D</tspan></text>
</g><g
           transform="matrix(3.2,0,0,3.2,-489.656,-1970.285)"
           id="g28"><text
             id="text32"
             style="font-variant:normal;font-weight:normal;font-size:9.96259975px;font-family:CMR10;-inkscape-font-specification:CMR10;writing-mode:lr-tb;fill:#000000;fill-opacity:1;fill-rule:nonzero;stroke:none"
             transform="matrix(1,0,0,-1,160.197,653.483)"><tspan
               id="tspan30"
               y="0"
               x="0">(</tspan></text>
</g><g
           transform="matrix(3.2,0,0,3.2,-489.656,-1970.285)"
           id="g34"><text
             id="text38"
             style="font-variant:normal;font-weight:normal;font-size:9.96259975px;font-family:CMMI10;-inkscape-font-specification:CMMI10;writing-mode:lr-tb;fill:#000000;fill-opacity:1;fill-rule:nonzero;stroke:none"
             transform="matrix(1,0,0,-1,164.071,653.483)"><tspan
               id="tspan36"
               y="0"
               x="0 8.4831543 12.91153">X,Y</tspan></text>
</g><g
           transform="matrix(3.2,0,0,3.2,-489.656,-1970.285)"
           id="g40"><text
             id="text44"
             style="font-variant:normal;font-weight:normal;font-size:9.96259975px;font-family:CMR10;-inkscape-font-specification:CMR10;writing-mode:lr-tb;fill:#000000;fill-opacity:1;fill-rule:nonzero;stroke:none"
             transform="matrix(1,0,0,-1,184.979,653.483)"><tspan
               id="tspan42"
               y="0"
               x="0">)</tspan></text>
</g><g
           transform="matrix(3.2,0,0,3.2,-489.656,-1970.285)"
           id="g46"><text
             id="text50"
             style="font-variant:normal;font-weight:normal;font-size:9.96259975px;font-family:MSBM10;-inkscape-font-specification:MSBM10;writing-mode:lr-tb;fill:#000000;fill-opacity:1;fill-rule:nonzero;stroke:none"
             transform="matrix(1,0,0,-1,221.343,653.483)"><tspan
               id="tspan48"
               y="0"
               x="0">C</tspan></text>
</g><g
           transform="matrix(3.2,0,0,3.2,-489.656,-1970.285)"
           id="g52"><text
             id="text56"
             style="font-variant:normal;font-weight:normal;font-size:9.96259975px;font-family:CMR10;-inkscape-font-specification:CMR10;writing-mode:lr-tb;fill:#000000;fill-opacity:1;fill-rule:nonzero;stroke:none"
             transform="matrix(1,0,0,-1,228.538,653.483)"><tspan
               id="tspan54"
               y="0"
               x="0">(</tspan></text>
</g><g
           transform="matrix(3.2,0,0,3.2,-489.656,-1970.285)"
           id="g58"><text
             id="text62"
             style="font-variant:normal;font-weight:normal;font-size:9.96259975px;font-family:CMMI10;-inkscape-font-specification:CMMI10;writing-mode:lr-tb;fill:#000000;fill-opacity:1;fill-rule:nonzero;stroke:none"
             transform="matrix(1,0,0,-1,232.412,653.483)"><tspan
               id="tspan60"
               y="0"
               x="0 7.8335924 16.314754 20.751099 28.57473">GX,GY</tspan></text>
</g><g
           transform="matrix(3.2,0,0,3.2,-489.656,-1970.285)"
           id="g64"><text
             id="text68"
             style="font-variant:normal;font-weight:normal;font-size:9.96259975px;font-family:CMR10;-inkscape-font-specification:CMR10;writing-mode:lr-tb;fill:#000000;fill-opacity:1;fill-rule:nonzero;stroke:none"
             transform="matrix(1,0,0,-1,268.986,653.483)"><tspan
               id="tspan66"
               y="0"
               x="0">)</tspan></text>
</g><g
           transform="matrix(3.2,0,0,3.2,-489.656,-1970.285)"
           id="g70"><text
             id="text74"
             style="font-variant:normal;font-weight:normal;font-size:9.96259975px;font-family:MSBM10;-inkscape-font-specification:MSBM10;writing-mode:lr-tb;fill:#000000;fill-opacity:1;fill-rule:nonzero;stroke:none"
             transform="matrix(1,0,0,-1,221.364,618.295)"><tspan
               id="tspan72"
               y="0"
               x="0">D</tspan></text>
</g><g
           transform="matrix(3.2,0,0,3.2,-489.656,-1970.285)"
           id="g76"><text
             id="text80"
             style="font-variant:normal;font-weight:normal;font-size:9.96259975px;font-family:CMR10;-inkscape-font-specification:CMR10;writing-mode:lr-tb;fill:#000000;fill-opacity:1;fill-rule:nonzero;stroke:none"
             transform="matrix(1,0,0,-1,228.559,618.295)"><tspan
               id="tspan78"
               y="0"
               x="0">(</tspan></text>
</g><g
           transform="matrix(3.2,0,0,3.2,-489.656,-1970.285)"
           id="g82"><text
             id="text86"
             style="font-variant:normal;font-weight:normal;font-size:9.96259975px;font-family:CMMI10;-inkscape-font-specification:CMMI10;writing-mode:lr-tb;fill:#000000;fill-opacity:1;fill-rule:nonzero;stroke:none"
             transform="matrix(1,0,0,-1,232.434,618.295)"><tspan
               id="tspan84"
               y="0"
               x="0 7.7917495 15.623349 24.102518 28.526909">FGX,Y</tspan></text>
</g><g
           transform="matrix(3.2,0,0,3.2,-489.656,-1970.285)"
           id="g88"><text
             id="text92"
             style="font-variant:normal;font-weight:normal;font-size:9.96259975px;font-family:CMR10;-inkscape-font-specification:CMR10;writing-mode:lr-tb;fill:#000000;fill-opacity:1;fill-rule:nonzero;stroke:none"
             transform="matrix(1,0,0,-1,268.965,618.295)"><tspan
               id="tspan90"
               y="0"
               x="0">)</tspan></text>
</g><g
           transform="matrix(3.2,0,0,3.2,191.7232,72.5314)"
           id="g94"><path
             id="path96"
             style="fill:none;stroke:#000000;stroke-width:0.39848;stroke-linecap:butt;stroke-linejoin:miter;stroke-miterlimit:10;stroke-dasharray:none;stroke-opacity:1"
             d="M -22.90045,8.76726 14.70618,-8.60007" /></g><g
           transform="matrix(2.9072,-1.342624,1.342624,2.9072,239.3621,44.74372)"
           id="g98"><path
             id="path100"
             style="fill:none;stroke:#000000;stroke-width:0.39848;stroke-linecap:round;stroke-linejoin:round;stroke-miterlimit:10;stroke-dasharray:none;stroke-opacity:1"
             d="M -2.07213,2.39091 C -1.69356,0.95633 -0.84995,0.27893 0,0 -0.84995,-0.27893 -1.69356,-0.95633 -2.07213,-2.39091" /></g><g
           transform="matrix(3.2,0,0,3.2,-489.656,-1970.285)"
           id="g102"><text
             id="text106"
             style="font-variant:normal;font-weight:normal;font-size:6.97380018px;font-family:CMMI7;-inkscape-font-specification:CMMI7;writing-mode:lr-tb;fill:#000000;fill-opacity:1;fill-rule:nonzero;stroke:none"
             transform="matrix(1,0,0,-1,192.318,630.712)"><tspan
               id="tspan104"
               y="0"
               x="0">&quot;</tspan></text>
</g><g
           transform="matrix(3.2,0,0,3.2,-489.656,-1970.285)"
           id="g108"><text
             id="text112"
             style="font-variant:normal;font-weight:normal;font-size:4.98129988px;font-family:CMMI5;-inkscape-font-specification:CMMI5;writing-mode:lr-tb;fill:#000000;fill-opacity:1;fill-rule:nonzero;stroke:none"
             transform="matrix(1,0,0,-1,196.082,629.71)"><tspan
               id="tspan110"
               y="0"
               x="0">X</tspan></text>
</g><g
           transform="matrix(3.2,0,0,3.2,-489.656,-1970.285)"
           id="g114"><text
             id="text118"
             style="font-variant:normal;font-weight:normal;font-size:4.98129988px;font-family:CMSY5;-inkscape-font-specification:CMSY5;writing-mode:lr-tb;fill:#000000;fill-opacity:1;fill-rule:nonzero;stroke:none"
             transform="matrix(1,0,0,-1,202.506,633.718)"><tspan
               id="tspan116"
               y="0"
               x="0">⇤</tspan></text>
</g><g
           transform="matrix(3.2,0,0,3.2,191.7232,72.5314)"
           id="g120"><path
             id="path122"
             style="fill:none;stroke:#000000;stroke-width:0.39848;stroke-linecap:butt;stroke-linejoin:miter;stroke-miterlimit:10;stroke-dasharray:none;stroke-opacity:1"
             d="M -19.58926,17.59401 H 3.52435" /></g><g
           transform="matrix(3.2,0,0,3.2,203.6387,128.8322)"
           id="g124"><path
             id="path126"
             style="fill:none;stroke:#000000;stroke-width:0.39848;stroke-linecap:round;stroke-linejoin:round;stroke-miterlimit:10;stroke-dasharray:none;stroke-opacity:1"
             d="M -2.07213,2.39091 C -1.69356,0.95633 -0.84995,0.27893 0,0 -0.84995,-0.27893 -1.69356,-0.95633 -2.07213,-2.39091" /></g><g
           transform="matrix(3.2,0,0,3.2,-489.656,-1970.285)"
           id="g128"><text
             id="text132"
             style="font-variant:normal;font-weight:normal;font-size:6.97380018px;font-family:CMMI7;-inkscape-font-specification:CMMI7;writing-mode:lr-tb;fill:#000000;fill-opacity:1;fill-rule:nonzero;stroke:none"
             transform="matrix(1,0,0,-1,195.071,660.288)"><tspan
               id="tspan130"
               y="0"
               x="0">G</tspan></text>
</g><g
           transform="matrix(3.2,0,0,3.2,-489.656,-1970.285)"
           id="g134"><text
             id="text138"
             style="font-variant:normal;font-weight:normal;font-size:4.98129988px;font-family:CMMI5;-inkscape-font-specification:CMMI5;writing-mode:lr-tb;fill:#000000;fill-opacity:1;fill-rule:nonzero;stroke:none"
             transform="matrix(1,0,0,-1,201.274,659.286)"><tspan
               id="tspan136"
               y="0"
               x="0 5.578558 7.8594952">X,Y</tspan></text>
</g><g
           transform="matrix(3.2,0,0,3.2,191.7232,72.5314)"
           id="g140"><path
             id="path142"
             style="fill:none;stroke:#000000;stroke-width:0.39848;stroke-linecap:butt;stroke-linejoin:miter;stroke-miterlimit:10;stroke-dasharray:none;stroke-opacity:1"
             d="M 34.17087,8.76726 V -8.36877" /></g><g
           transform="matrix(0,-3.2,3.2,0,301.07,45.11377)"
           id="g144"><path
             id="path146"
             style="fill:none;stroke:#000000;stroke-width:0.39848;stroke-linecap:round;stroke-linejoin:round;stroke-miterlimit:10;stroke-dasharray:none;stroke-opacity:1"
             d="M -2.07213,2.39091 C -1.69356,0.95633 -0.84995,0.27893 0,0 -0.84995,-0.27893 -1.69356,-0.95633 -2.07213,-2.39091" /></g><g
           transform="matrix(3.2,0,0,3.2,-489.656,-1970.285)"
           id="g148"><text
             id="text152"
             style="font-variant:normal;font-weight:normal;font-size:6.97380018px;font-family:CMSY7;-inkscape-font-specification:CMSY7;writing-mode:lr-tb;fill:#000000;fill-opacity:1;fill-rule:nonzero;stroke:none"
             transform="matrix(1,0,0,-1,249.446,638.131)"><tspan
               id="tspan150"
               y="0"
               x="0">⇠</tspan></text>
</g><g
           transform="matrix(3.2,0,0,3.2,-489.656,-1970.285)"
           id="g154"><text
             id="text158"
             style="font-variant:normal;font-weight:normal;font-size:6.97380018px;font-family:CMR7;-inkscape-font-specification:CMR7;writing-mode:lr-tb;fill:#000000;fill-opacity:1;fill-rule:nonzero;stroke:none"
             transform="matrix(1,0,0,-1,249.501,635.95)"><tspan
               id="tspan156"
               y="0"
               x="0">=</tspan></text>
</g></g></g><g
       id="g160" /></g></svg>