<?xml version="1.0" encoding="UTF-8" standalone="no"?>
<svg
   xmlns:dc="http://purl.org/dc/elements/1.1/"
   xmlns:cc="http://creativecommons.org/ns#"
   xmlns:rdf="http://www.w3.org/1999/02/22-rdf-syntax-ns#"
   xmlns:svg="http://www.w3.org/2000/svg"
   xmlns="http://www.w3.org/2000/svg"
   viewBox="0 0 549.33331 168.42667"
   height="168.42667"
   width="549.33331"
   xml:space="preserve"
   id="svg2"
   version="1.1"><metadata
     id="metadata8"><rdf:RDF><cc:Work
         rdf:about=""><dc:format>image/svg+xml</dc:format><dc:type
           rdf:resource="http://purl.org/dc/dcmitype/StillImage" /></cc:Work></rdf:RDF></metadata><defs
     id="defs6"><clipPath
       id="clipPath20"
       clipPathUnits="userSpaceOnUse"><path
         id="path18"
         d="m 0,0.16 h 412 v 126 H 0 Z" /></clipPath></defs><g
     transform="matrix(1.3333333,0,0,-1.3333333,0,168.42667)"
     id="g10"><g
       id="g12" /><g
       id="g14"><g
         clip-path="url(#clipPath20)"
         id="g16"><g
           transform="matrix(3.2,0,0,3.2,-485.256,-1998.048)"
           id="g22"><text
             id="text26"
             style="font-variant:normal;font-weight:normal;font-size:9.96259975px;font-family:CMMI10;-inkscape-font-specification:CMMI10;writing-mode:lr-tb;fill:#000000;fill-opacity:1;fill-rule:nonzero;stroke:none"
             transform="matrix(1,0,0,-1,209.389,656.744)"><tspan
               id="tspan24"
               y="0"
               x="0">X</tspan></text>
</g><g
           transform="matrix(3.2,0,0,3.2,-485.256,-1998.048)"
           id="g28"><text
             id="text32"
             style="font-variant:normal;font-weight:normal;font-size:9.96259975px;font-family:CMMI10;-inkscape-font-specification:CMMI10;writing-mode:lr-tb;fill:#000000;fill-opacity:1;fill-rule:nonzero;stroke:none"
             transform="matrix(1,0,0,-1,164.196,624.711)"><tspan
               id="tspan30"
               y="0"
               x="0 7.7917495 15.623349">FGX</tspan></text>
</g><g
           transform="matrix(3.2,0,0,3.2,-485.256,-1998.048)"
           id="g34"><text
             id="text38"
             style="font-variant:normal;font-weight:normal;font-size:9.96259975px;font-family:CMMI10;-inkscape-font-specification:CMMI10;writing-mode:lr-tb;fill:#000000;fill-opacity:1;fill-rule:nonzero;stroke:none"
             transform="matrix(1,0,0,-1,238.959,624.711)"><tspan
               id="tspan36"
               y="0"
               x="0 7.7917495 15.623349">FGX</tspan></text>
</g><g
           transform="matrix(3.2,0,0,3.2,199.2464,63.1748)"
           id="g40"><path
             id="path42"
             style="fill:none;stroke:#000000;stroke-width:0.39848;stroke-linecap:butt;stroke-linejoin:miter;stroke-miterlimit:10;stroke-dasharray:none;stroke-opacity:1"
             d="M 7.39363,8.76726 27.55405,-8.50711" /></g><g
           transform="matrix(2.438176,-2.089152,2.089152,2.438176,287.9051,35.53582)"
           id="g44"><path
             id="path46"
             style="fill:none;stroke:#000000;stroke-width:0.39848;stroke-linecap:round;stroke-linejoin:round;stroke-miterlimit:10;stroke-dasharray:none;stroke-opacity:1"
             d="M -2.07213,2.39091 C -1.69356,0.95633 -0.84995,0.27893 0,0 -0.84995,-0.27893 -1.69356,-0.95633 -2.07213,-2.39091" /></g><g
           transform="matrix(3.2,0,0,3.2,-485.256,-1998.048)"
           id="g48"><text
             id="text52"
             style="font-variant:normal;font-weight:normal;font-size:6.97380018px;font-family:CMMI7;-inkscape-font-specification:CMMI7;writing-mode:lr-tb;fill:#000000;fill-opacity:1;fill-rule:nonzero;stroke:none"
             transform="matrix(1,0,0,-1,233.876,648.219)"><tspan
               id="tspan50"
               y="0"
               x="0">g</tspan></text>
</g><g
           transform="matrix(3.2,0,0,3.2,-485.256,-1998.048)"
           id="g54"><text
             id="text58"
             style="font-variant:normal;font-weight:normal;font-size:6.97380018px;font-family:CMR7;-inkscape-font-specification:CMR7;writing-mode:lr-tb;fill:#000000;fill-opacity:1;fill-rule:nonzero;stroke:none"
             transform="matrix(1,0,0,-1,240.698,648.219)"><tspan
               id="tspan56"
               y="0"
               x="0 3.1131043 6.2262087 9.7716885 12.884793 15.997897 19.968779 23.514259 26.627363 28.88269 32.853573 37.256828">(retraction)</tspan></text>
</g><g
           transform="matrix(3.2,0,0,3.2,199.2464,63.1748)"
           id="g60"><path
             id="path62"
             style="fill:none;stroke:#000000;stroke-width:0.39848;stroke-linecap:butt;stroke-linejoin:miter;stroke-miterlimit:10;stroke-dasharray:none;stroke-opacity:1"
             d="m -27.85915,-8.76724 20.1626,17.2744" /></g><g
           transform="matrix(2.438176,2.088864,-2.088864,2.438176,175.1032,90.81384)"
           id="g64"><path
             id="path66"
             style="fill:none;stroke:#000000;stroke-width:0.39848;stroke-linecap:round;stroke-linejoin:round;stroke-miterlimit:10;stroke-dasharray:none;stroke-opacity:1"
             d="M -2.07213,2.39091 C -1.69356,0.95633 -0.84995,0.27893 0,0 -0.84995,-0.27893 -1.69356,-0.95633 -2.07213,-2.39091" /></g><g
           transform="matrix(3.2,0,0,3.2,-485.256,-1998.048)"
           id="g68"><text
             id="text72"
             style="font-variant:normal;font-weight:normal;font-size:6.97380018px;font-family:CMR7;-inkscape-font-specification:CMR7;writing-mode:lr-tb;fill:#000000;fill-opacity:1;fill-rule:nonzero;stroke:none"
             transform="matrix(1,0,0,-1,150.857,648.219)"><tspan
               id="tspan70"
               y="0"
               x="0 3.1131043 6.2680516 9.8135309 13.359012 16.472116 18.727442 22.698324 27.101582">(section)</tspan></text>
</g><g
           transform="matrix(3.2,0,0,3.2,-485.256,-1998.048)"
           id="g74"><text
             id="text78"
             style="font-variant:normal;font-weight:normal;font-size:6.97380018px;font-family:CMMI7;-inkscape-font-specification:CMMI7;writing-mode:lr-tb;fill:#000000;fill-opacity:1;fill-rule:nonzero;stroke:none"
             transform="matrix(1,0,0,-1,183.749,648.219)"><tspan
               id="tspan76"
               y="0"
               x="0">&quot;</tspan></text>
</g><g
           transform="matrix(3.2,0,0,3.2,-485.256,-1998.048)"
           id="g80"><text
             id="text84"
             style="font-variant:normal;font-weight:normal;font-size:4.98129988px;font-family:CMMI5;-inkscape-font-specification:CMMI5;writing-mode:lr-tb;fill:#000000;fill-opacity:1;fill-rule:nonzero;stroke:none"
             transform="matrix(1,0,0,-1,187.513,647.217)"><tspan
               id="tspan82"
               y="0"
               x="0">X</tspan></text>
</g><g
           transform="matrix(3.2,0,0,3.2,199.2464,63.1748)"
           id="g86"><path
             id="path88"
             style="fill:none;stroke:#000000;stroke-width:0.39848;stroke-linecap:butt;stroke-linejoin:miter;stroke-miterlimit:10;stroke-dasharray:none;stroke-opacity:1"
             d="M -20.56339,-16.92978 H 20.16492" /></g><g
           transform="matrix(3.2,0,0,3.2,264.4117,8.999504)"
           id="g90"><path
             id="path92"
             style="fill:none;stroke:#000000;stroke-width:0.39848;stroke-linecap:round;stroke-linejoin:round;stroke-miterlimit:10;stroke-dasharray:none;stroke-opacity:1"
             d="M -2.07213,2.39091 C -1.69356,0.95633 -0.84995,0.27893 0,0 -0.84995,-0.27893 -1.69356,-0.95633 -2.07213,-2.39091" /></g><g
           transform="matrix(3.2,0,0,3.2,-485.256,-1998.048)"
           id="g94"><text
             id="text98"
             style="font-variant:normal;font-weight:normal;font-size:6.97380018px;font-family:CMR7;-inkscape-font-specification:CMR7;writing-mode:lr-tb;fill:#000000;fill-opacity:1;fill-rule:nonzero;stroke:none"
             transform="matrix(1,0,0,-1,203.466,630.548)"><tspan
               id="tspan96"
               y="0"
               x="0">1</tspan></text>
</g><g
           transform="matrix(3.2,0,0,3.2,-485.256,-1998.048)"
           id="g100"><text
             id="text104"
             style="font-variant:normal;font-weight:normal;font-size:4.98129988px;font-family:CMMI5;-inkscape-font-specification:CMMI5;writing-mode:lr-tb;fill:#000000;fill-opacity:1;fill-rule:nonzero;stroke:none"
             transform="matrix(1,0,0,-1,207.438,629.546)"><tspan
               id="tspan102"
               y="0"
               x="0 5.1875257 10.487629">FGX</tspan></text>
</g></g></g><g
       id="g106" /></g></svg>