<?xml version="1.0" encoding="UTF-8" standalone="no"?>
<svg
   xmlns:dc="http://purl.org/dc/elements/1.1/"
   xmlns:cc="http://creativecommons.org/ns#"
   xmlns:rdf="http://www.w3.org/1999/02/22-rdf-syntax-ns#"
   xmlns:svg="http://www.w3.org/2000/svg"
   xmlns="http://www.w3.org/2000/svg"
   viewBox="0 0 622.66669 301.76001"
   height="301.76001"
   width="622.66669"
   xml:space="preserve"
   id="svg2"
   version="1.1"><metadata
     id="metadata8"><rdf:RDF><cc:Work
         rdf:about=""><dc:format>image/svg+xml</dc:format><dc:type
           rdf:resource="http://purl.org/dc/dcmitype/StillImage" /></cc:Work></rdf:RDF></metadata><defs
     id="defs6"><clipPath
       id="clipPath20"
       clipPathUnits="userSpaceOnUse"><path
         id="path18"
         d="m 0,0.16 h 467 v 226 H 0 Z" /></clipPath></defs><g
     transform="matrix(1.3333333,0,0,-1.3333333,0,301.76)"
     id="g10"><g
       id="g12" /><g
       id="g14"><g
         clip-path="url(#clipPath20)"
         id="g16"><g
           transform="matrix(3.2,0,0,3.2,-490.656,-1902.498)"
           id="g22"><text
             id="text26"
             style="font-variant:normal;font-weight:normal;font-size:9.96259975px;font-family:MSBM10;-inkscape-font-specification:MSBM10;writing-mode:lr-tb;fill:#000000;fill-opacity:1;fill-rule:nonzero;stroke:none"
             transform="matrix(1,0,0,-1,165.65,644.222)"><tspan
               id="tspan24"
               y="0"
               x="0">C</tspan></text>
</g><g
           transform="matrix(3.2,0,0,3.2,-490.656,-1902.498)"
           id="g28"><text
             id="text32"
             style="font-variant:normal;font-weight:normal;font-size:9.96259975px;font-family:MSBM10;-inkscape-font-specification:MSBM10;writing-mode:lr-tb;fill:#000000;fill-opacity:1;fill-rule:nonzero;stroke:none"
             transform="matrix(1,0,0,-1,226.715,644.222)"><tspan
               id="tspan30"
               y="0"
               x="0">D</tspan></text>
</g><g
           transform="matrix(3.2,0,0,3.2,-490.656,-1902.498)"
           id="g34"><text
             id="text38"
             style="font-variant:normal;font-weight:normal;font-size:9.96259975px;font-family:CMMI10;-inkscape-font-specification:CMMI10;writing-mode:lr-tb;fill:#ff0000;fill-opacity:1;fill-rule:nonzero;stroke:none"
             transform="matrix(1,0,0,-1,160.813,627.133)"><tspan
               id="tspan36"
               y="0"
               x="0 7.8335924">GX</tspan></text>
</g><g
           transform="matrix(3.2,0,0,3.2,-490.656,-1902.498)"
           id="g40"><text
             id="text44"
             style="font-variant:normal;font-weight:normal;font-size:9.96259975px;font-family:CMMI10;-inkscape-font-specification:CMMI10;writing-mode:lr-tb;fill:#000000;fill-opacity:1;fill-rule:nonzero;stroke:none"
             transform="matrix(1,0,0,-1,225.795,627.133)"><tspan
               id="tspan42"
               y="0"
               x="0">X</tspan></text>
</g><g
           transform="matrix(3.2,0,0,3.2,-490.656,-1902.498)"
           id="g46"><text
             id="text50"
             style="font-variant:normal;font-weight:normal;font-size:9.96259975px;font-family:CMMI10;-inkscape-font-specification:CMMI10;writing-mode:lr-tb;fill:#ff0000;fill-opacity:1;fill-rule:nonzero;stroke:none"
             transform="matrix(1,0,0,-1,275.131,627.133)"><tspan
               id="tspan48"
               y="0"
               x="0 7.7917495 15.623349">FGX</tspan></text>
</g><g
           transform="matrix(3.2,0,0,3.2,-490.656,-1902.498)"
           id="g52"><text
             id="text56"
             style="font-variant:normal;font-weight:normal;font-size:9.96259975px;font-family:CMMI10;-inkscape-font-specification:CMMI10;writing-mode:lr-tb;fill:#ff0000;fill-opacity:1;fill-rule:nonzero;stroke:none"
             transform="matrix(1,0,0,-1,153.002,595.101)"><tspan
               id="tspan54"
               y="0"
               x="0 7.8335924 15.627335 23.460926">GFGX</tspan></text>
</g><g
           transform="matrix(3.2,0,0,3.2,-490.656,-1902.498)"
           id="g58"><text
             id="text62"
             style="font-variant:normal;font-weight:normal;font-size:9.96259975px;font-family:CMMI10;-inkscape-font-specification:CMMI10;writing-mode:lr-tb;fill:#ff0000;fill-opacity:1;fill-rule:nonzero;stroke:none"
             transform="matrix(1,0,0,-1,217.983,595.101)"><tspan
               id="tspan60"
               y="0"
               x="0 7.7917495 15.623349">FGX</tspan></text>
</g><g
           transform="matrix(3.2,0,0,3.2,233.8112,91.3998)"
           id="g64"><path
             id="path66"
             style="fill:none;stroke:#000000;stroke-width:0.39848;stroke-linecap:butt;stroke-linejoin:miter;stroke-miterlimit:10;stroke-dasharray:none;stroke-opacity:1"
             d="m -49.06242,28.28642 c 15.16137,8.75341 29.73123,8.75341 44.54643,0.19985" /></g><g
           transform="matrix(2.780064,-1.604992,1.604992,2.780064,219.9139,182.2361)"
           id="g68"><path
             id="path70"
             style="fill:none;stroke:#000000;stroke-width:0.39848;stroke-linecap:round;stroke-linejoin:round;stroke-miterlimit:10;stroke-dasharray:none;stroke-opacity:1"
             d="M -2.07213,2.39091 C -1.69356,0.95633 -0.84995,0.27893 0,0 -0.84995,-0.27893 -1.69356,-0.95633 -2.07213,-2.39091" /></g><g
           transform="matrix(3.2,0,0,3.2,-490.656,-1902.498)"
           id="g72"><text
             id="text76"
             style="font-variant:normal;font-weight:normal;font-size:6.97380018px;font-family:CMMI7;-inkscape-font-specification:CMMI7;writing-mode:lr-tb;fill:#000000;fill-opacity:1;fill-rule:nonzero;stroke:none"
             transform="matrix(1,0,0,-1,196.718,660.288)"><tspan
               id="tspan74"
               y="0"
               x="0">F</tspan></text>
</g><g
           transform="matrix(3.2,0,0,3.2,233.8112,91.3998)"
           id="g78"><path
             id="path80"
             style="fill:none;stroke:#000000;stroke-width:0.39848;stroke-linecap:butt;stroke-linejoin:miter;stroke-miterlimit:10;stroke-dasharray:none;stroke-opacity:1"
             d="M -4.16982,18.95377 C -19.33119,10.20036 -33.90105,10.20036 -48.71623,18.75392" /></g><g
           transform="matrix(-2.780064,1.604992,-1.604992,-2.780064,77.36534,151.7321)"
           id="g82"><path
             id="path84"
             style="fill:none;stroke:#000000;stroke-width:0.39848;stroke-linecap:round;stroke-linejoin:round;stroke-miterlimit:10;stroke-dasharray:none;stroke-opacity:1"
             d="M -2.07213,2.39091 C -1.69356,0.95633 -0.84995,0.27893 0,0 -0.84995,-0.27893 -1.69356,-0.95633 -2.07213,-2.39091" /></g><g
           transform="matrix(3.2,0,0,3.2,-490.656,-1902.498)"
           id="g86"><text
             id="text90"
             style="font-variant:normal;font-weight:normal;font-size:6.97380018px;font-family:CMMI7;-inkscape-font-specification:CMMI7;writing-mode:lr-tb;fill:#000000;fill-opacity:1;fill-rule:nonzero;stroke:none"
             transform="matrix(1,0,0,-1,196.679,628.372)"><tspan
               id="tspan88"
               y="0"
               x="0">G</tspan></text>
</g><g
           transform="matrix(0,-3.2,3.2,0,-1941.651,804.9518)"
           id="g92"><text
             id="text96"
             style="font-variant:normal;font-weight:normal;font-size:9.96259975px;font-family:CMSY10;-inkscape-font-specification:CMSY10;writing-mode:lr-tb;fill:#000000;fill-opacity:1;fill-rule:nonzero;stroke:none"
             transform="matrix(1,0,0,-1,196.321,649.757)"><tspan
               id="tspan94"
               y="0"
               x="0">a</tspan></text>
</g><g
           transform="matrix(3.2,0,0,3.2,233.8112,91.3998)"
           id="g98"><path
             id="path100"
             style="fill:none;stroke:#ff0000;stroke-width:0.39848;stroke-linecap:butt;stroke-linejoin:miter;stroke-miterlimit:10;stroke-dasharray:none;stroke-opacity:1"
             d="M -57.14885,0.1951 V -16.94093" /></g><g
           transform="matrix(0,-3.2,3.2,0,50.93488,36.55122)"
           id="g102"><path
             id="path104"
             style="fill:none;stroke:#ff0000;stroke-width:0.39848;stroke-linecap:round;stroke-linejoin:round;stroke-miterlimit:10;stroke-dasharray:none;stroke-opacity:1"
             d="M -2.07213,2.39091 C -1.69356,0.95633 -0.84995,0.27893 0,0 -0.84995,-0.27893 -1.69356,-0.95633 -2.07213,-2.39091" /></g><g
           transform="matrix(3.2,0,0,3.2,-490.656,-1902.498)"
           id="g106"><text
             id="text110"
             style="font-variant:normal;font-weight:normal;font-size:6.97380018px;font-family:CMMI7;-inkscape-font-specification:CMMI7;writing-mode:lr-tb;fill:#ff0000;fill-opacity:1;fill-rule:nonzero;stroke:none"
             transform="matrix(1,0,0,-1,156.035,612.777)"><tspan
               id="tspan108"
               y="0"
               x="0 6.2024975">Gf</tspan></text>
</g><g
           transform="matrix(3.2,0,0,3.2,233.8112,91.3998)"
           id="g112"><path
             id="path114"
             style="fill:none;stroke:#000000;stroke-width:0.39848;stroke-linecap:butt;stroke-linejoin:miter;stroke-miterlimit:10;stroke-dasharray:none;stroke-opacity:1"
             d="M 3.9166,0.1951 V -16.94093" /></g><g
           transform="matrix(0,-3.2,3.2,0,246.3443,36.55122)"
           id="g116"><path
             id="path118"
             style="fill:none;stroke:#000000;stroke-width:0.39848;stroke-linecap:round;stroke-linejoin:round;stroke-miterlimit:10;stroke-dasharray:none;stroke-opacity:1"
             d="M -2.07213,2.39091 C -1.69356,0.95633 -0.84995,0.27893 0,0 -0.84995,-0.27893 -1.69356,-0.95633 -2.07213,-2.39091" /></g><g
           transform="matrix(3.2,0,0,3.2,-490.656,-1902.498)"
           id="g120"><text
             id="text124"
             style="font-variant:normal;font-weight:normal;font-size:6.97380018px;font-family:CMMI7;-inkscape-font-specification:CMMI7;writing-mode:lr-tb;fill:#000000;fill-opacity:1;fill-rule:nonzero;stroke:none"
             transform="matrix(1,0,0,-1,223.302,612.777)"><tspan
               id="tspan122"
               y="0"
               x="0">f</tspan></text>
</g><g
           transform="matrix(3.2,0,0,3.2,233.8112,91.3998)"
           id="g126"><path
             id="path128"
             style="fill:none;stroke:#000000;stroke-width:0.39848;stroke-linecap:butt;stroke-linejoin:miter;stroke-miterlimit:10;stroke-dasharray:none;stroke-opacity:1"
             d="M 44.24709,6.53114 H 13.32167" /></g><g
           transform="matrix(-3.2,0,0,-3.2,275.803,112.2994)"
           id="g130"><path
             id="path132"
             style="fill:none;stroke:#000000;stroke-width:0.39848;stroke-linecap:round;stroke-linejoin:round;stroke-miterlimit:10;stroke-dasharray:none;stroke-opacity:1"
             d="M -2.07213,2.39091 C -1.69356,0.95633 -0.84995,0.27893 0,0 -0.84995,-0.27893 -1.69356,-0.95633 -2.07213,-2.39091" /></g><g
           transform="matrix(3.2,0,0,3.2,-490.656,-1902.498)"
           id="g134"><text
             id="text138"
             style="font-variant:normal;font-weight:normal;font-size:6.97380018px;font-family:CMMI7;-inkscape-font-specification:CMMI7;writing-mode:lr-tb;fill:#000000;fill-opacity:1;fill-rule:nonzero;stroke:none"
             transform="matrix(1,0,0,-1,249.887,632.97)"><tspan
               id="tspan136"
               y="0"
               x="0">&quot;</tspan></text>
</g><g
           transform="matrix(3.2,0,0,3.2,-490.656,-1902.498)"
           id="g140"><text
             id="text144"
             style="font-variant:normal;font-weight:normal;font-size:4.98129988px;font-family:CMMI5;-inkscape-font-specification:CMMI5;writing-mode:lr-tb;fill:#000000;fill-opacity:1;fill-rule:nonzero;stroke:none"
             transform="matrix(1,0,0,-1,253.651,631.968)"><tspan
               id="tspan142"
               y="0"
               x="0">X</tspan></text>
</g><g
           transform="matrix(3.2,0,0,3.2,233.8112,91.3998)"
           id="g146"><path
             id="path148"
             style="fill:none;stroke:#ff0000;stroke-width:0.39848;stroke-linecap:butt;stroke-linejoin:miter;stroke-miterlimit:10;stroke-dasharray:none;stroke-opacity:1"
             d="M 49.76218,0.1951 18.8247,-17.14456" /></g><g
           transform="matrix(-2.792032,-1.564832,1.564832,-2.792032,293.494,36.2255)"
           id="g150"><path
             id="path152"
             style="fill:none;stroke:#ff0000;stroke-width:0.39848;stroke-linecap:round;stroke-linejoin:round;stroke-miterlimit:10;stroke-dasharray:none;stroke-opacity:1"
             d="M -2.07213,2.39091 C -1.69356,0.95633 -0.84995,0.27893 0,0 -0.84995,-0.27893 -1.69356,-0.95633 -2.07213,-2.39091" /></g><g
           transform="matrix(3.2,0,0,3.2,-490.656,-1902.498)"
           id="g154"><text
             id="text158"
             style="font-variant:normal;font-weight:normal;font-size:6.97380018px;font-family:CMMI7;-inkscape-font-specification:CMMI7;writing-mode:lr-tb;fill:#ff0000;fill-opacity:1;fill-rule:nonzero;stroke:none"
             transform="matrix(1,0,0,-1,262.859,607.334)"><tspan
               id="tspan156"
               y="0"
               x="0">f</tspan></text>
</g><g
           transform="matrix(3.2,0,0,3.2,-490.656,-1902.498)"
           id="g160"><text
             id="text164"
             style="font-variant:normal;font-weight:normal;font-size:6.97380018px;font-family:CMSY7;-inkscape-font-specification:CMSY7;writing-mode:lr-tb;fill:#ff0000;fill-opacity:1;fill-rule:nonzero;stroke:none"
             transform="matrix(1,0,0,-1,267.526,607.334)"><tspan
               id="tspan162"
               y="0"
               x="0"></tspan></text>
</g><g
           transform="matrix(3.2,0,0,3.2,-490.656,-1902.498)"
           id="g166"><text
             id="text170"
             style="font-variant:normal;font-weight:normal;font-size:6.97380018px;font-family:CMMI7;-inkscape-font-specification:CMMI7;writing-mode:lr-tb;fill:#ff0000;fill-opacity:1;fill-rule:nonzero;stroke:none"
             transform="matrix(1,0,0,-1,271.608,607.334)"><tspan
               id="tspan168"
               y="0"
               x="0">&quot;</tspan></text>
</g><g
           transform="matrix(3.2,0,0,3.2,-490.656,-1902.498)"
           id="g172"><text
             id="text176"
             style="font-variant:normal;font-weight:normal;font-size:4.98129988px;font-family:CMMI5;-inkscape-font-specification:CMMI5;writing-mode:lr-tb;fill:#ff0000;fill-opacity:1;fill-rule:nonzero;stroke:none"
             transform="matrix(1,0,0,-1,275.372,606.332)"><tspan
               id="tspan174"
               y="0"
               x="0">X</tspan></text>
</g></g></g><g
       id="g178" /></g></svg>