<?xml version="1.0" encoding="UTF-8" standalone="no"?>
<svg
   xmlns:dc="http://purl.org/dc/elements/1.1/"
   xmlns:cc="http://creativecommons.org/ns#"
   xmlns:rdf="http://www.w3.org/1999/02/22-rdf-syntax-ns#"
   xmlns:svg="http://www.w3.org/2000/svg"
   xmlns="http://www.w3.org/2000/svg"
   viewBox="0 0 352 277.81332"
   height="277.81332"
   width="352"
   xml:space="preserve"
   id="svg2"
   version="1.1"><metadata
     id="metadata8"><rdf:RDF><cc:Work
         rdf:about=""><dc:format>image/svg+xml</dc:format><dc:type
           rdf:resource="http://purl.org/dc/dcmitype/StillImage" /></cc:Work></rdf:RDF></metadata><defs
     id="defs6"><clipPath
       id="clipPath20"
       clipPathUnits="userSpaceOnUse"><path
         id="path18"
         d="m 0,0.18 h 264 v 208 H 0 Z" /></clipPath></defs><g
     transform="matrix(1.3333333,0,0,-1.3333333,0,277.81333)"
     id="g10"><g
       id="g12" /><g
       id="g14"><g
         clip-path="url(#clipPath20)"
         id="g16"><g
           transform="matrix(3.6,0,0,3.6,-551.856,-2186.371)"
           id="g22"><text
             id="text26"
             style="font-variant:normal;font-weight:normal;font-size:9.96259975px;font-family:MSBM10;-inkscape-font-specification:MSBM10;writing-mode:lr-tb;fill:#000000;fill-opacity:1;fill-rule:nonzero;stroke:none"
             transform="matrix(1,0,0,-1,153.002,655.453)"><tspan
               id="tspan24"
               y="0"
               x="0">C</tspan></text>
</g><g
           transform="matrix(3.6,0,0,3.6,-551.856,-2186.371)"
           id="g28"><text
             id="text32"
             style="font-variant:normal;font-weight:normal;font-size:6.97380018px;font-family:CMMI7;-inkscape-font-specification:CMMI7;writing-mode:lr-tb;fill:#000000;fill-opacity:1;fill-rule:nonzero;stroke:none"
             transform="matrix(1,0,0,-1,160.197,659.069)"><tspan
               id="tspan30"
               y="0"
               x="0 3.9325259">op</tspan></text>
</g><g
           transform="matrix(3.6,0,0,3.6,-551.856,-2186.371)"
           id="g34"><text
             id="text38"
             style="font-variant:normal;font-weight:normal;font-size:9.96259975px;font-family:MSBM10;-inkscape-font-specification:MSBM10;writing-mode:lr-tb;fill:#000000;fill-opacity:1;fill-rule:nonzero;stroke:none"
             transform="matrix(1,0,0,-1,210.71,655.453)"><tspan
               id="tspan36"
               y="0"
               x="0">D</tspan></text>
</g><g
           transform="matrix(3.6,0,0,3.6,-551.856,-2186.371)"
           id="g40"><text
             id="text44"
             style="font-variant:normal;font-weight:normal;font-size:9.96259975px;font-family:CMMI10;-inkscape-font-specification:CMMI10;writing-mode:lr-tb;fill:#000000;fill-opacity:1;fill-rule:nonzero;stroke:none"
             transform="matrix(1,0,0,-1,156.952,636.206)"><tspan
               id="tspan42"
               y="0"
               x="0">C</tspan></text>
</g><g
           transform="matrix(3.6,0,0,3.6,-551.856,-2186.371)"
           id="g46"><text
             id="text50"
             style="font-variant:normal;font-weight:normal;font-size:9.96259975px;font-family:CMMI10;-inkscape-font-specification:CMMI10;writing-mode:lr-tb;fill:#000000;fill-opacity:1;fill-rule:nonzero;stroke:none"
             transform="matrix(1,0,0,-1,202.621,636.206)"><tspan
               id="tspan48"
               y="0"
               x="0">F</tspan></text>
</g><g
           transform="matrix(3.6,0,0,3.6,-551.856,-2186.371)"
           id="g52"><text
             id="text56"
             style="font-variant:normal;font-weight:normal;font-size:9.96259975px;font-family:CMR10;-inkscape-font-specification:CMR10;writing-mode:lr-tb;fill:#000000;fill-opacity:1;fill-rule:nonzero;stroke:none"
             transform="matrix(1,0,0,-1,210.412,636.206)"><tspan
               id="tspan54"
               y="0"
               x="0">(</tspan></text>
</g><g
           transform="matrix(3.6,0,0,3.6,-551.856,-2186.371)"
           id="g58"><text
             id="text62"
             style="font-variant:normal;font-weight:normal;font-size:9.96259975px;font-family:CMMI10;-inkscape-font-specification:CMMI10;writing-mode:lr-tb;fill:#000000;fill-opacity:1;fill-rule:nonzero;stroke:none"
             transform="matrix(1,0,0,-1,214.286,636.206)"><tspan
               id="tspan60"
               y="0"
               x="0">C</tspan></text>
</g><g
           transform="matrix(3.6,0,0,3.6,-551.856,-2186.371)"
           id="g64"><text
             id="text68"
             style="font-variant:normal;font-weight:normal;font-size:9.96259975px;font-family:CMR10;-inkscape-font-specification:CMR10;writing-mode:lr-tb;fill:#000000;fill-opacity:1;fill-rule:nonzero;stroke:none"
             transform="matrix(1,0,0,-1,222.119,636.206)"><tspan
               id="tspan66"
               y="0"
               x="0">)</tspan></text>
</g><g
           transform="matrix(3.6,0,0,3.6,-551.856,-2186.371)"
           id="g70"><text
             id="text74"
             style="font-variant:normal;font-weight:normal;font-size:9.96259975px;font-family:CMMI10;-inkscape-font-specification:CMMI10;writing-mode:lr-tb;fill:#000000;fill-opacity:1;fill-rule:nonzero;stroke:none"
             transform="matrix(1,0,0,-1,155.554,609.967)"><tspan
               id="tspan72"
               y="0"
               x="0">C</tspan></text>
</g><g
           transform="matrix(3.6,0,0,3.6,-551.856,-2186.371)"
           id="g76"><text
             id="text80"
             style="font-variant:normal;font-weight:normal;font-size:6.97380018px;font-family:CMSY7;-inkscape-font-specification:CMSY7;writing-mode:lr-tb;fill:#000000;fill-opacity:1;fill-rule:nonzero;stroke:none"
             transform="matrix(1,0,0,-1,163.387,613.582)"><tspan
               id="tspan78"
               y="0"
               x="0">0</tspan></text>
</g><g
           transform="matrix(3.6,0,0,3.6,-551.856,-2186.371)"
           id="g82"><text
             id="text86"
             style="font-variant:normal;font-weight:normal;font-size:9.96259975px;font-family:CMMI10;-inkscape-font-specification:CMMI10;writing-mode:lr-tb;fill:#000000;fill-opacity:1;fill-rule:nonzero;stroke:none"
             transform="matrix(1,0,0,-1,201.224,609.967)"><tspan
               id="tspan84"
               y="0"
               x="0">F</tspan></text>
</g><g
           transform="matrix(3.6,0,0,3.6,-551.856,-2186.371)"
           id="g88"><text
             id="text92"
             style="font-variant:normal;font-weight:normal;font-size:9.96259975px;font-family:CMR10;-inkscape-font-specification:CMR10;writing-mode:lr-tb;fill:#000000;fill-opacity:1;fill-rule:nonzero;stroke:none"
             transform="matrix(1,0,0,-1,209.014,609.967)"><tspan
               id="tspan90"
               y="0"
               x="0">(</tspan></text>
</g><g
           transform="matrix(3.6,0,0,3.6,-551.856,-2186.371)"
           id="g94"><text
             id="text98"
             style="font-variant:normal;font-weight:normal;font-size:9.96259975px;font-family:CMMI10;-inkscape-font-specification:CMMI10;writing-mode:lr-tb;fill:#000000;fill-opacity:1;fill-rule:nonzero;stroke:none"
             transform="matrix(1,0,0,-1,212.888,609.967)"><tspan
               id="tspan96"
               y="0"
               x="0">C</tspan></text>
</g><g
           transform="matrix(3.6,0,0,3.6,-551.856,-2186.371)"
           id="g100"><text
             id="text104"
             style="font-variant:normal;font-weight:normal;font-size:6.97380018px;font-family:CMSY7;-inkscape-font-specification:CMSY7;writing-mode:lr-tb;fill:#000000;fill-opacity:1;fill-rule:nonzero;stroke:none"
             transform="matrix(1,0,0,-1,220.721,613.582)"><tspan
               id="tspan102"
               y="0"
               x="0">0</tspan></text>
</g><g
           transform="matrix(3.6,0,0,3.6,-551.856,-2186.371)"
           id="g106"><text
             id="text110"
             style="font-variant:normal;font-weight:normal;font-size:9.96259975px;font-family:CMR10;-inkscape-font-specification:CMR10;writing-mode:lr-tb;fill:#000000;fill-opacity:1;fill-rule:nonzero;stroke:none"
             transform="matrix(1,0,0,-1,223.517,609.967)"><tspan
               id="tspan108"
               y="0"
               x="0">)</tspan></text>
</g><g
           transform="matrix(3.6,0,0,3.6,132.8496,99.2542)"
           id="g112"><path
             id="path114"
             style="fill:none;stroke:#000000;stroke-width:0.39848;stroke-linecap:butt;stroke-linejoin:miter;stroke-miterlimit:10;stroke-dasharray:none;stroke-opacity:1"
             d="m -16.97331,23.04774 h 32.5997" /></g><g
           transform="matrix(3.6,0,0,3.6,189.8219,182.2261)"
           id="g116"><path
             id="path118"
             style="fill:none;stroke:#000000;stroke-width:0.39848;stroke-linecap:round;stroke-linejoin:round;stroke-miterlimit:10;stroke-dasharray:none;stroke-opacity:1"
             d="M -2.07213,2.39091 C -1.69356,0.95633 -0.84995,0.27893 0,0 -0.84995,-0.27893 -1.69356,-0.95633 -2.07213,-2.39091" /></g><g
           transform="matrix(3.6,0,0,3.6,-551.856,-2186.371)"
           id="g120"><text
             id="text124"
             style="font-variant:normal;font-weight:normal;font-size:6.97380018px;font-family:CMMI7;-inkscape-font-specification:CMMI7;writing-mode:lr-tb;fill:#000000;fill-opacity:1;fill-rule:nonzero;stroke:none"
             transform="matrix(1,0,0,-1,186.66,660.288)"><tspan
               id="tspan122"
               y="0"
               x="0">F</tspan></text>
</g><g
           transform="matrix(3.6,0,0,3.6,132.8496,99.2542)"
           id="g126"><path
             id="path128"
             style="fill:none;stroke:#000000;stroke-width:0.39848;stroke-linecap:butt;stroke-linejoin:miter;stroke-miterlimit:10;stroke-dasharray:none;stroke-opacity:1"
             d="M -29.32857,-13.5944 V -2.93427" /></g><g
           transform="matrix(0,3.6,-3.6,0,27.26675,89.40809)"
           id="g130"><path
             id="path132"
             style="fill:none;stroke:#000000;stroke-width:0.39848;stroke-linecap:round;stroke-linejoin:round;stroke-miterlimit:10;stroke-dasharray:none;stroke-opacity:1"
             d="M -2.07213,2.39091 C -1.69356,0.95633 -0.84995,0.27893 0,0 -0.84995,-0.27893 -1.69356,-0.95633 -2.07213,-2.39091" /></g><g
           transform="matrix(3.6,0,0,3.6,132.8496,99.2542)"
           id="g134"><path
             id="path136"
             style="fill:none;stroke:#000000;stroke-width:0.39848;stroke-linecap:butt;stroke-linejoin:miter;stroke-miterlimit:10;stroke-dasharray:none;stroke-opacity:1"
             d="m 24.1113,-13.5944 v 8.16944" /></g><g
           transform="matrix(0,3.6,-3.6,0,219.6503,80.44161)"
           id="g138"><path
             id="path140"
             style="fill:none;stroke:#000000;stroke-width:0.39848;stroke-linecap:round;stroke-linejoin:round;stroke-miterlimit:10;stroke-dasharray:none;stroke-opacity:1"
             d="M -2.07213,2.39091 C -1.69356,0.95633 -0.84995,0.27893 0,0 -0.84995,-0.27893 -1.69356,-0.95633 -2.07213,-2.39091" /></g></g></g><g
       id="g142" /></g></svg>