<?xml version="1.0" encoding="utf-8"?>
<!-- Generator: Adobe Illustrator 21.1.0, SVG Export Plug-In . SVG Version: 6.00 Build 0)  -->
<svg version="1.1"
	 id="图层_1" xmlns:cc="http://creativecommons.org/ns#" xmlns:dc="http://purl.org/dc/elements/1.1/" xmlns:rdf="http://www.w3.org/1999/02/22-rdf-syntax-ns#" xmlns:svg="http://www.w3.org/2000/svg"
	 xmlns="http://www.w3.org/2000/svg" xmlns:xlink="http://www.w3.org/1999/xlink" x="0px" y="0px" viewBox="0 0 800 450"
	 style="enable-background:new 0 0 800 450;" xml:space="preserve">
<style type="text/css">
	.st0{fill:#FF99CC;}
	.st1{fill:#FFBFFF;}
	.st2{fill:#FFDEAD;stroke:#000000;}
	.st3{fill:#FFC0C0;stroke:#000000;}
	.st4{fill:#CCCCCC;stroke:#000000;}
	.st5{fill:#FFFF99;stroke:#000000;}
	.st6{fill:#C0FFFF;stroke:#000000;}
	.st7{fill:#FF6666;stroke:#000000;}
	.st8{fill:#CCCC99;stroke:#000000;}
	.st9{fill:#A0FFA0;stroke:#000000;}
	.st10{fill:#FFBFFF;stroke:#000000;}
	.st11{fill:#FF99CC;stroke:#000000;}
	.st12{font-family:'AdobeSongStd-Light-GBpc-EUC-H';}
	.st13{font-size:12px;}
	.st14{font-family:'TimesNewRomanPSMT';}
	.st15{font-size:11px;}
	.st16{font-size:14px;}
	.st17{font-family:'SourceHanSansTC-Regular-B5pc-H';}
	.st18{font-size:6px;}
</style>
<path class="st0" d="M143.5,330.5v-36h36v36H143.5z"/>
<path class="st1" d="M143.5,290.5v-36h36v36H143.5z"/>
<path class="st2" d="M103.5,330.5v-36h36v36H103.5z"/>
<path class="st3" d="M183.5,330.5v-36h36v36H183.5z"/>
<path class="st3" d="M223.5,330.5v-36h36v36H223.5z"/>
<path class="st3" d="M263.5,330.5v-36h36v36H263.5z"/>
<path class="st3" d="M303.5,330.5v-36h36v36H303.5z"/>
<path class="st3" d="M343.5,330.5v-36h36v36H343.5z"/>
<path class="st3" d="M383.5,330.5v-36h36v36H383.5z"/>
<path class="st3" d="M423.5,330.5v-36h36v36H423.5z"/>
<path class="st3" d="M463.5,330.5v-36h36v36H463.5z"/>
<path class="st3" d="M503.5,330.5v-36h36v36H503.5z"/>
<path class="st4" d="M543.5,330.5v-36h36v36H543.5z"/>
<path class="st4" d="M583.5,330.5v-36h36v36H583.5z"/>
<path class="st4" d="M623.5,330.5v-36h36v36H623.5z"/>
<path class="st4" d="M663.5,330.5v-36h36v36H663.5z"/>
<path class="st5" d="M703.5,330.5v-36h36v36H703.5z"/>
<path class="st6" d="M743.5,330.5v-36h36v36H743.5z"/>
<path class="st7" d="M63.5,330.5v-36h36v36H63.5z"/>
<path class="st2" d="M103.5,290.5v-36h36v36H103.5z"/>
<path class="st3" d="M183.5,290.5v-36h36v36H183.5z"/>
<path class="st3" d="M223.5,290.5v-36h36v36H223.5z"/>
<path class="st3" d="M263.5,290.5v-36h36v36H263.5z"/>
<path class="st3" d="M303.5,290.5v-36h36v36H303.5z"/>
<path class="st3" d="M343.5,290.5v-36h36v36H343.5z"/>
<path class="st3" d="M383.5,290.5v-36h36v36H383.5z"/>
<path class="st3" d="M423.5,290.5v-36h36v36H423.5z"/>
<path class="st3" d="M463.5,290.5v-36h36v36H463.5z"/>
<path class="st3" d="M503.5,290.5v-36h36v36H503.5z"/>
<path class="st4" d="M543.5,290.5v-36h36v36H543.5z"/>
<path class="st4" d="M583.5,290.5v-36h36v36H583.5z"/>
<path class="st4" d="M623.5,290.5v-36h36v36H623.5z"/>
<path class="st8" d="M663.5,290.5v-36h36v36H663.5z"/>
<path class="st5" d="M703.5,290.5v-36h36v36H703.5z"/>
<path class="st6" d="M743.5,290.5v-36h36v36H743.5z"/>
<path class="st7" d="M63.5,290.5v-36h36v36H63.5z"/>
<path class="st2" d="M103.5,250.5v-36h36v36H103.5z"/>
<path class="st3" d="M143.5,250.5v-36h36v36H143.5z"/>
<path class="st3" d="M183.5,250.5v-36h36v36H183.5z"/>
<path class="st3" d="M223.5,250.5v-36h36v36H223.5z"/>
<path class="st3" d="M263.5,250.5v-36h36v36H263.5z"/>
<path class="st3" d="M303.5,250.5v-36h36v36H303.5z"/>
<path class="st3" d="M343.5,250.5v-36h36v36H343.5z"/>
<path class="st3" d="M383.5,250.5v-36h36v36H383.5z"/>
<path class="st3" d="M423.5,250.5v-36h36v36H423.5z"/>
<path class="st3" d="M463.5,250.5v-36h36v36H463.5z"/>
<path class="st3" d="M503.5,250.5v-36h36v36H503.5z"/>
<path class="st4" d="M543.5,250.5v-36h36v36H543.5z"/>
<path class="st4" d="M583.5,250.5v-36h36v36H583.5z"/>
<path class="st8" d="M623.5,250.5v-36h36v36H623.5z"/>
<path class="st8" d="M663.5,250.5v-36h36v36H663.5z"/>
<path class="st5" d="M703.5,250.5v-36h36v36H703.5z"/>
<path class="st6" d="M743.5,250.5v-36h36v36H743.5z"/>
<path class="st7" d="M63.5,250.5v-36h36v36H63.5z"/>
<path class="st2" d="M103.5,210.5v-36h36v36H103.5z"/>
<path class="st3" d="M143.5,210.5v-36h36v36H143.5z"/>
<path class="st3" d="M183.5,210.5v-36h36v36H183.5z"/>
<path class="st3" d="M223.5,210.5v-36h36v36H223.5z"/>
<path class="st3" d="M263.5,210.5v-36h36v36H263.5z"/>
<path class="st3" d="M303.5,210.5v-36h36v36H303.5z"/>
<path class="st3" d="M343.5,210.5v-36h36v36H343.5z"/>
<path class="st3" d="M383.5,210.5v-36h36v36H383.5z"/>
<path class="st3" d="M423.5,210.5v-36h36v36H423.5z"/>
<path class="st3" d="M463.5,210.5v-36h36v36H463.5z"/>
<path class="st3" d="M503.5,210.5v-36h36v36H503.5z"/>
<path class="st4" d="M543.5,210.5v-36h36v36H543.5z"/>
<path class="st8" d="M583.5,210.5v-36h36v36H583.5z"/>
<path class="st8" d="M623.5,210.5v-36h36v36H623.5z"/>
<path class="st9" d="M663.5,210.5v-36h36v36H663.5z"/>
<path class="st5" d="M703.5,210.5v-36h36v36H703.5z"/>
<path class="st6" d="M743.5,210.5v-36h36v36H743.5z"/>
<path class="st7" d="M63.5,210.5v-36h36v36H63.5z"/>
<path class="st2" d="M103.5,170.5v-36h36v36H103.5z"/>
<path class="st7" d="M63.5,170.5v-36h36v36H63.5z"/>
<path class="st2" d="M103.5,130.5v-36h36v36H103.5z"/>
<path class="st7" d="M63.5,130.5v-36h36v36H63.5z"/>
<path class="st9" d="M63.5,90.5v-36h36v36H63.5z"/>
<path class="st4" d="M543.5,170.5v-36h36v36H543.5z"/>
<path class="st8" d="M583.5,170.5v-36h36v36H583.5z"/>
<path class="st9" d="M623.5,170.5v-36h36v36H623.5z"/>
<path class="st9" d="M663.5,170.5v-36h36v36H663.5z"/>
<path class="st5" d="M703.5,170.5v-36h36v36H703.5z"/>
<path class="st6" d="M743.5,170.5v-36h36v36H743.5z"/>
<path class="st8" d="M543.5,130.5v-36h36v36H543.5z"/>
<path class="st9" d="M583.5,130.5v-36h36v36H583.5z"/>
<path class="st9" d="M623.5,130.5v-36h36v36H623.5z"/>
<path class="st9" d="M663.5,130.5v-36h36v36H663.5z"/>
<path class="st5" d="M703.5,130.5v-36h36v36H703.5z"/>
<path class="st6" d="M743.5,130.5v-36h36v36H743.5z"/>
<path class="st6" d="M743.5,90.5v-36h36v36H743.5z"/>
<path class="st10" d="M183.5,390.5v-36h36v36H183.5z"/>
<path class="st10" d="M223.5,390.5v-36h36v36H223.5z"/>
<path class="st10" d="M263.5,390.5v-36h36v36H263.5z"/>
<path class="st10" d="M303.5,390.5v-36h36v36H303.5z"/>
<path class="st10" d="M343.5,390.5v-36h36v36H343.5z"/>
<path class="st10" d="M383.5,390.5v-36h36v36H383.5z"/>
<path class="st10" d="M423.5,390.5v-36h36v36H423.5z"/>
<path class="st10" d="M463.5,390.5v-36h36v36H463.5z"/>
<path class="st10" d="M503.5,390.5v-36h36v36H503.5z"/>
<path class="st10" d="M543.5,390.5v-36h36v36H543.5z"/>
<path class="st10" d="M583.5,390.5v-36h36v36H583.5z"/>
<path class="st10" d="M623.5,390.5v-36h36v36H623.5z"/>
<path class="st10" d="M663.5,390.5v-36h36v36H663.5z"/>
<path class="st10" d="M703.5,390.5v-36h36v36H703.5z"/>
<path class="st10" d="M743.5,390.5v-36h36v36H743.5z"/>
<path class="st11" d="M183.5,430.5v-36h36v36H183.5z"/>
<path class="st11" d="M223.5,430.5v-36h36v36H223.5z"/>
<path class="st11" d="M263.5,430.5v-36h36v36H263.5z"/>
<path class="st11" d="M303.5,430.5v-36h36v36H303.5z"/>
<path class="st11" d="M343.5,430.5v-36h36v36H343.5z"/>
<path class="st11" d="M383.5,430.5v-36h36v36H383.5z"/>
<path class="st11" d="M423.5,430.5v-36h36v36H423.5z"/>
<path class="st11" d="M463.5,430.5v-36h36v36H463.5z"/>
<path class="st11" d="M503.5,430.5v-36h36v36H503.5z"/>
<path class="st11" d="M543.5,430.5v-36h36v36H543.5z"/>
<path class="st11" d="M583.5,430.5v-36h36v36H583.5z"/>
<path class="st11" d="M623.5,430.5v-36h36v36H623.5z"/>
<path class="st11" d="M663.5,430.5v-36h36v36H663.5z"/>
<path class="st11" d="M703.5,430.5v-36h36v36H703.5z"/>
<path class="st11" d="M743.5,430.5v-36h36v36H743.5z"/>
<g>
	<text transform="matrix(1 0 0 1 76.9 37.5)" class="st12 st13">1</text>
	<text transform="matrix(1 0 0 1 116.9 37.5)" class="st12 st13">2</text>
	<text transform="matrix(1 0 0 1 156.9 37.5)" class="st12 st13">3</text>
	<text transform="matrix(1 0 0 1 196.9 37.5)" class="st12 st13">4</text>
	<text transform="matrix(1 0 0 1 236.9 37.5)" class="st12 st13">5</text>
	<text transform="matrix(1 0 0 1 276.9 37.5)" class="st12 st13">6</text>
	<text transform="matrix(1 0 0 1 316.9 37.5)" class="st12 st13">7</text>
	<text transform="matrix(1 0 0 1 356.9 37.5)" class="st12 st13">8</text>
	<text transform="matrix(1 0 0 1 396.9 37.5)" class="st12 st13">9</text>
	<text transform="matrix(1 0 0 1 433.3 37.5)" class="st12 st13">10</text>
	<text transform="matrix(1 0 0 1 473.3 37.5)" class="st12 st13">11</text>
	<text transform="matrix(1 0 0 1 513.3 37.5)" class="st12 st13">12</text>
	<text transform="matrix(1 0 0 1 553.3 37.5)" class="st12 st13">13</text>
	<text transform="matrix(1 0 0 1 593.3 37.5)" class="st12 st13">14</text>
	<text transform="matrix(1 0 0 1 633.3 37.5)" class="st12 st13">15</text>
	<text transform="matrix(1 0 0 1 673.3 37.5)" class="st12 st13">16</text>
	<text transform="matrix(1 0 0 1 713.3 37.5)" class="st12 st13">17</text>
	<text transform="matrix(1 0 0 1 753.3 37.5)" class="st12 st13">18</text>
	<text transform="matrix(1 0 0 1 37.9 77.5)" class="st12 st13">1</text>
	<text transform="matrix(1 0 0 1 37.9 117.5)" class="st12 st13">2</text>
	<text transform="matrix(1 0 0 1 37.9 157.5)" class="st12 st13">3</text>
	<text transform="matrix(1 0 0 1 37.9 197.5)" class="st12 st13">4</text>
	<text transform="matrix(1 0 0 1 37.9 237.5)" class="st12 st13">5</text>
	<text transform="matrix(1 0 0 1 37.9 277.5)" class="st12 st13">6</text>
	<text transform="matrix(1 0 0 1 37.9 317.5)" class="st12 st13">7</text>
	<text transform="matrix(1 0 0 1 37 36.5)" class="st12 st13">族</text>
	<text transform="matrix(1 0 0 1 25.5 51.5)" class="st12 st13">週期</text>
</g>
<g transform="translate(-16,-56.5)">
	<text transform="matrix(1 0 0 1 82 125)" class="st14 st15">1</text>
	<text transform="matrix(1 0 0 1 762 125)" class="st14 st15">2</text>
	<text transform="matrix(1 0 0 1 82 165)" class="st14 st15">3</text>
	<text transform="matrix(1 0 0 1 122 165)" class="st14 st15">4</text>
	<text transform="matrix(1 0 0 1 562 165)" class="st14 st15">5</text>
	<text transform="matrix(1 0 0 1 602 165)" class="st14 st15">6</text>
	<text transform="matrix(1 0 0 1 642 165)" class="st14 st15">7</text>
	<text transform="matrix(1 0 0 1 682 165)" class="st14 st15">8</text>
	<text transform="matrix(1 0 0 1 722 165)" class="st14 st15">9</text>
	<text transform="matrix(1 0 0 1 762 165)" class="st14 st15">10</text>
	<text transform="matrix(1 0 0 1 82 205)" class="st14 st15">11</text>
	<text transform="matrix(1 0 0 1 122 205)" class="st14 st15">12</text>
	<text transform="matrix(1 0 0 1 562 205)" class="st14 st15">13</text>
	<text transform="matrix(1 0 0 1 602 205)" class="st14 st15">14</text>
	<text transform="matrix(1 0 0 1 642 205)" class="st14 st15">15</text>
	<text transform="matrix(1 0 0 1 682 205)" class="st14 st15">16</text>
	<text transform="matrix(1 0 0 1 722 205)" class="st14 st15">17</text>
	<text transform="matrix(1 0 0 1 762 205)" class="st14 st15">18</text>
	<text transform="matrix(1 0 0 1 82 245)" class="st14 st15">19</text>
	<text transform="matrix(1 0 0 1 122 245)" class="st14 st15">20</text>
	<text transform="matrix(1 0 0 1 162 245)" class="st14 st15">21</text>
	<text transform="matrix(1 0 0 1 202 245)" class="st14 st15">22</text>
	<text transform="matrix(1 0 0 1 242 245)" class="st14 st15">23</text>
	<text transform="matrix(1 0 0 1 282 245)" class="st14 st15">24</text>
	<text transform="matrix(1 0 0 1 322 245)" class="st14 st15">25</text>
	<text transform="matrix(1 0 0 1 362 245)" class="st14 st15">26</text>
	<text transform="matrix(1 0 0 1 402 245)" class="st14 st15">27</text>
	<text transform="matrix(1 0 0 1 442 245)" class="st14 st15">28</text>
	<text transform="matrix(1 0 0 1 482 245)" class="st14 st15">29</text>
	<text transform="matrix(1 0 0 1 522 245)" class="st14 st15">30</text>
	<text transform="matrix(1 0 0 1 562 245)" class="st14 st15">31</text>
	<text transform="matrix(1 0 0 1 602 245)" class="st14 st15">32</text>
	<text transform="matrix(1 0 0 1 642 245)" class="st14 st15">33</text>
	<text transform="matrix(1 0 0 1 682 245)" class="st14 st15">34</text>
	<text transform="matrix(1 0 0 1 722 245)" class="st14 st15">35</text>
	<text transform="matrix(1 0 0 1 762 245)" class="st14 st15">36</text>
	<text transform="matrix(1 0 0 1 82 285)" class="st14 st15">37</text>
	<text transform="matrix(1 0 0 1 122 285)" class="st14 st15">38</text>
	<text transform="matrix(1 0 0 1 162 285)" class="st14 st15">39</text>
	<text transform="matrix(1 0 0 1 202 285)" class="st14 st15">40</text>
	<text transform="matrix(1 0 0 1 242 285)" class="st14 st15">41</text>
	<text transform="matrix(1 0 0 1 282 285)" class="st14 st15">42</text>
	<text transform="matrix(1 0 0 1 322 285)" class="st14 st15">43</text>
	<text transform="matrix(1 0 0 1 362 285)" class="st14 st15">44</text>
	<text transform="matrix(1 0 0 1 402 285)" class="st14 st15">45</text>
	<text transform="matrix(1 0 0 1 442 285)" class="st14 st15">46</text>
	<text transform="matrix(1 0 0 1 482 285)" class="st14 st15">47</text>
	<text transform="matrix(1 0 0 1 522 285)" class="st14 st15">48</text>
	<text transform="matrix(1 0 0 1 562 285)" class="st14 st15">49</text>
	<text transform="matrix(1 0 0 1 602 285)" class="st14 st15">50</text>
	<text transform="matrix(1 0 0 1 642 285)" class="st14 st15">51</text>
	<text transform="matrix(1 0 0 1 682 285)" class="st14 st15">52</text>
	<text transform="matrix(1 0 0 1 722 285)" class="st14 st15">53</text>
	<text transform="matrix(1 0 0 1 762 285)" class="st14 st15">54</text>
	<text transform="matrix(1 0 0 1 82 325)" class="st14 st15">55</text>
	<text transform="matrix(1 0 0 1 122 325)" class="st14 st15">56</text>
	<text transform="matrix(1 0 0 1 202 425)" class="st14 st15">57</text>
	<text transform="matrix(1 0 0 1 242 425)" class="st14 st15">58</text>
	<text transform="matrix(1 0 0 1 282 425)" class="st14 st15">59</text>
	<text transform="matrix(1 0 0 1 322 425)" class="st14 st15">60</text>
	<text transform="matrix(1 0 0 1 362 425)" class="st14 st15">61</text>
	<text transform="matrix(1 0 0 1 402 425)" class="st14 st15">62</text>
	<text transform="matrix(1 0 0 1 442 425)" class="st14 st15">63</text>
	<text transform="matrix(1 0 0 1 482 425)" class="st14 st15">64</text>
	<text transform="matrix(1 0 0 1 522 425)" class="st14 st15">65</text>
	<text transform="matrix(1 0 0 1 562 425)" class="st14 st15">66</text>
	<text transform="matrix(1 0 0 1 602 425)" class="st14 st15">67</text>
	<text transform="matrix(1 0 0 1 642 425)" class="st14 st15">68</text>
	<text transform="matrix(1 0 0 1 682 425)" class="st14 st15">69</text>
	<text transform="matrix(1 0 0 1 722 425)" class="st14 st15">70</text>
	<text transform="matrix(1 0 0 1 762 425)" class="st14 st15">71</text>
	<text transform="matrix(1 0 0 1 202 325)" class="st14 st15">72</text>
	<text transform="matrix(1 0 0 1 242 325)" class="st14 st15">73</text>
	<text transform="matrix(1 0 0 1 282 325)" class="st14 st15">74</text>
	<text transform="matrix(1 0 0 1 322 325)" class="st14 st15">75</text>
	<text transform="matrix(1 0 0 1 362 325)" class="st14 st15">76</text>
	<text transform="matrix(1 0 0 1 402 325)" class="st14 st15">77</text>
	<text transform="matrix(1 0 0 1 442 325)" class="st14 st15">78</text>
	<text transform="matrix(1 0 0 1 482 325)" class="st14 st15">79</text>
	<text transform="matrix(1 0 0 1 522 325)" class="st14 st15">80</text>
	<text transform="matrix(1 0 0 1 562 325)" class="st14 st15">81</text>
	<text transform="matrix(1 0 0 1 602 325)" class="st14 st15">82</text>
	<text transform="matrix(1 0 0 1 642 325)" class="st14 st15">83</text>
	<text transform="matrix(1 0 0 1 682 325)" class="st14 st15">84</text>
	<text transform="matrix(1 0 0 1 722 325)" class="st14 st15">85</text>
	<text transform="matrix(1 0 0 1 762 325)" class="st14 st15">86</text>
	<text transform="matrix(1 0 0 1 82 365)" class="st14 st15">87</text>
	<text transform="matrix(1 0 0 1 122 365)" class="st14 st15">88</text>
	<text transform="matrix(1 0 0 1 202 465)" class="st14 st15">89</text>
	<text transform="matrix(1 0 0 1 242 465)" class="st14 st15">90</text>
	<text transform="matrix(1 0 0 1 282 465)" class="st14 st15">91</text>
	<text transform="matrix(1 0 0 1 322 465)" class="st14 st15">92</text>
	<text transform="matrix(1 0 0 1 362 465)" class="st14 st15">93</text>
	<text transform="matrix(1 0 0 1 402 465)" class="st14 st15">94</text>
	<text transform="matrix(1 0 0 1 442 465)" class="st14 st15">95</text>
	<text transform="matrix(1 0 0 1 482 465)" class="st14 st15">96</text>
	<text transform="matrix(1 0 0 1 522 465)" class="st14 st15">97</text>
	<text transform="matrix(1 0 0 1 562 465)" class="st14 st15">98</text>
	<text transform="matrix(1 0 0 1 602 465)" class="st14 st15">99</text>
	<text transform="matrix(1 0 0 1 640 465)" class="st14 st15">100</text>
	<text transform="matrix(1 0 0 1 680 465)" class="st14 st15">101</text>
	<text transform="matrix(1 0 0 1 720 465)" class="st14 st15">102</text>
	<text transform="matrix(1 0 0 1 760 465)" class="st14 st15">103</text>
	<text transform="matrix(1 0 0 1 200 365)" class="st14 st15">104</text>
	<text transform="matrix(1 0 0 1 240 365)" class="st14 st15">105</text>
	<text transform="matrix(1 0 0 1 280 365)" class="st14 st15">106</text>
	<text transform="matrix(1 0 0 1 320 365)" class="st14 st15">107</text>
	<text transform="matrix(1 0 0 1 360 365)" class="st14 st15">108</text>
	<text transform="matrix(1 0 0 1 400 365)" class="st14 st15">109</text>
	<text transform="matrix(1 0 0 1 440 365)" class="st14 st15">110</text>
	<text transform="matrix(1 0 0 1 480 365)" class="st14 st15">111</text>
	<text transform="matrix(1 0 0 1 520 365)" class="st14 st15">112</text>
	<text transform="matrix(1 0 0 1 562 365)" class="st14 st15">113</text>
	<text transform="matrix(1 0 0 1 602 365)" class="st14 st15">114</text>
	<text transform="matrix(1 0 0 1 642 365)" class="st14 st15">115</text>
	<text transform="matrix(1 0 0 1 682 365)" class="st14 st15">116</text>
	<text transform="matrix(1 0 0 1 722 365)" class="st14 st15">117</text>
	<text transform="matrix(1 0 0 1 762 365)" class="st14 st15">118</text>
</g>
<g transform="translate(13,-72.5)">
	<text transform="matrix(1 0 0 1 74.0562 141)" class="st14 st15">H</text>
	<text transform="matrix(1 0 0 1 749.1738 141)" class="st14 st15">He</text>
	<text transform="matrix(1 0 0 1 72.2246 181)" class="st14 st15">Li</text>
	<text transform="matrix(1 0 0 1 109.7808 181)" class="st14 st15">Be</text>
	<text transform="matrix(1 0 0 1 554.6631 181)" class="st14 st15">B</text>
	<text transform="matrix(1 0 0 1 594.6631 181)" class="st14 st15">C</text>
	<text transform="matrix(1 0 0 1 634.0562 181)" class="st14 st15">N</text>
	<text transform="matrix(1 0 0 1 674.0562 181)" class="st14 st15">O</text>
	<text transform="matrix(1 0 0 1 715.8823 181)" class="st14 st15">F</text>
	<text transform="matrix(1 0 0 1 749.1738 181)" class="st14 st15">Ne</text>
	<text transform="matrix(1 0 0 1 69.1738 221)" class="st14 st15">Na</text>
	<text transform="matrix(1 0 0 1 106.7192 221)" class="st14 st15">Mg</text>
	<text transform="matrix(1 0 0 1 551 221)" class="st14 st15">Al</text>
	<text transform="matrix(1 0 0 1 592.8262 221)" class="st14 st15">Si</text>
	<text transform="matrix(1 0 0 1 635.8823 221)" class="st14 st15">P</text>
	<text transform="matrix(1 0 0 1 675.8823 221)" class="st14 st15">S</text>
	<text transform="matrix(1 0 0 1 711.6069 221)" class="st14 st15">Cl</text>
	<text transform="matrix(1 0 0 1 750.3931 221)" class="st14 st15">Ar</text>
	<text transform="matrix(1 0 0 1 109.7808 261)" class="st14 st15">Ca</text>
	<text transform="matrix(1 0 0 1 151 261)" class="st14 st15">Sc</text>
	<text transform="matrix(1 0 0 1 192.6113 261)" class="st14 st15">Ti</text>
	<text transform="matrix(1 0 0 1 234.0562 261)" class="st14 st15">V</text>
	<text transform="matrix(1 0 0 1 271 261)" class="st14 st15">Cr</text>
	<text transform="matrix(1 0 0 1 306.7192 261)" class="st14 st15">Mn</text>
	<text transform="matrix(1 0 0 1 351 261)" class="st14 st15">Fe</text>
	<text transform="matrix(1 0 0 1 389.1631 261)" class="st14 st15">Co</text>
	<text transform="matrix(1 0 0 1 431 261)" class="st14 st15">Ni</text>
	<text transform="matrix(1 0 0 1 469.1631 261)" class="st14 st15">Cu</text>
	<text transform="matrix(1 0 0 1 509.7808 261)" class="st14 st15">Zn</text>
	<text transform="matrix(1 0 0 1 74.0562 261)" class="st14 st15">K</text>
	<text transform="matrix(1 0 0 1 549.1738 261)" class="st14 st15">Ga</text>
	<text transform="matrix(1 0 0 1 589.1738 261)" class="st14 st15">Ge</text>
	<text transform="matrix(1 0 0 1 629.7754 261)" class="st14 st15">As</text>
	<text transform="matrix(1 0 0 1 671 261)" class="st14 st15">Se</text>
	<text transform="matrix(1 0 0 1 711 261)" class="st14 st15">Br</text>
	<text transform="matrix(1 0 0 1 750.3931 261)" class="st14 st15">Kr</text>
	<text transform="matrix(1 0 0 1 69.1631 301)" class="st14 st15">Rb</text>
	<text transform="matrix(1 0 0 1 112.2192 301)" class="st14 st15">Sr</text>
	<text transform="matrix(1 0 0 1 154.0562 301)" class="st14 st15">Y</text>
	<text transform="matrix(1 0 0 1 191.6177 301)" class="st14 st15">Zr</text>
	<text transform="matrix(1 0 0 1 228.5562 301)" class="st14 st15">Nb</text>
	<text transform="matrix(1 0 0 1 266.7192 301)" class="st14 st15">Mo</text>
	<text transform="matrix(1 0 0 1 311.1665 301)" class="st14 st15">Tc</text>
	<text transform="matrix(1 0 0 1 349.1631 301)" class="st14 st15">Ru</text>
	<text transform="matrix(1 0 0 1 389.1631 301)" class="st14 st15">Rh</text>
	<text transform="matrix(1 0 0 1 430.3823 301)" class="st14 st15">Pd</text>
	<text transform="matrix(1 0 0 1 468.5562 301)" class="st14 st15">Ag</text>
	<text transform="matrix(1 0 0 1 509.1631 301)" class="st14 st15">Cd</text>
	<text transform="matrix(1 0 0 1 552.8369 301)" class="st14 st15">In</text>
	<text transform="matrix(1 0 0 1 590.3823 301)" class="st14 st15">Sn</text>
	<text transform="matrix(1 0 0 1 630.3823 301)" class="st14 st15">Sb</text>
	<text transform="matrix(1 0 0 1 671.1665 301)" class="st14 st15">Te</text>
	<text transform="matrix(1 0 0 1 718.3369 301)" class="st14 st15">I</text>
	<text transform="matrix(1 0 0 1 749.1738 301)" class="st14 st15">Xe</text>
	<text transform="matrix(1 0 0 1 109.7808 341)" class="st14 st15">Ba</text>
	<text transform="matrix(1 0 0 1 190.3931 341)" class="st14 st15">Hf</text>
	<text transform="matrix(1 0 0 1 231.1665 341)" class="st14 st15">Ta</text>
	<text transform="matrix(1 0 0 1 271.6177 341)" class="st14 st15">W</text>
	<text transform="matrix(1 0 0 1 309.7808 341)" class="st14 st15">Re</text>
	<text transform="matrix(1 0 0 1 349.7754 341)" class="st14 st15">Os</text>
	<text transform="matrix(1 0 0 1 394.6738 341)" class="st14 st15">Ir</text>
	<text transform="matrix(1 0 0 1 432.8262 341)" class="st14 st15">Pt</text>
	<text transform="matrix(1 0 0 1 468.5562 341)" class="st14 st15">Au</text>
	<text transform="matrix(1 0 0 1 508.5562 341)" class="st14 st15">Hg</text>
	<text transform="matrix(1 0 0 1 552.2246 341)" class="st14 st15">Tl</text>
	<text transform="matrix(1 0 0 1 590.3823 341)" class="st14 st15">Pb</text>
	<text transform="matrix(1 0 0 1 631.6069 341)" class="st14 st15">Bi</text>
	<text transform="matrix(1 0 0 1 670.3823 341)" class="st14 st15">Po</text>
	<text transform="matrix(1 0 0 1 711 341)" class="st14 st15">At</text>
	<text transform="matrix(1 0 0 1 749.1631 341)" class="st14 st15">Rn</text>
	<text transform="matrix(1 0 0 1 70.3823 341)" class="st14 st15">Cs</text>
	<text transform="matrix(1 0 0 1 270.3823 381)" class="st14 st15">Sg</text>
	<text transform="matrix(1 0 0 1 469.1631 381)" class="st14 st15">Rg</text>
	<text transform="matrix(1 0 0 1 109.7808 381)" class="st14 st15">Ra</text>
	<text transform="matrix(1 0 0 1 191 381)" class="st14 st15">Rf</text>
	<text transform="matrix(1 0 0 1 230.5562 381)" class="st14 st15">Db</text>
	<text transform="matrix(1 0 0 1 311.1631 381)" class="st14 st15">Bh</text>
	<text transform="matrix(1 0 0 1 351.7754 381)" class="st14 st15">Hs</text>
	<text transform="matrix(1 0 0 1 391.1631 381)" class="st14 st15">Mt</text>
	<text transform="matrix(1 0 0 1 431.7754 381)" class="st14 st15">Ds</text>
	<text transform="matrix(1 0 0 1 511.1631 381)" class="st14 st15">Cn</text>
	<text transform="matrix(1 0 0 1 594.8262 381)" class="st14 st15">Fl</text>
	<text transform="matrix(1 0 0 1 671.7808 381)" class="st14 st15">Lv</text>
	<text transform="matrix(1 0 0 1 72.2192 381)" class="st14 st15">Fr</text>
	<text transform="matrix(1 0 0 1 548.5562 441)" class="st14 st15">Dy</text>
	<text transform="matrix(1 0 0 1 190.3984 441)" class="st14 st15">La</text>
	<text transform="matrix(1 0 0 1 229.7808 441)" class="st14 st15">Ce</text>
	<text transform="matrix(1 0 0 1 272.2192 441)" class="st14 st15">Pr</text>
	<text transform="matrix(1 0 0 1 308.5562 441)" class="st14 st15">Nd</text>
	<text transform="matrix(1 0 0 1 347.3262 441)" class="st14 st15">Pm</text>
	<text transform="matrix(1 0 0 1 387.3262 441)" class="st14 st15">Sm</text>
	<text transform="matrix(1 0 0 1 429.7808 441)" class="st14 st15">Eu</text>
	<text transform="matrix(1 0 0 1 468.5562 441)" class="st14 st15">Gd</text>
	<text transform="matrix(1 0 0 1 509.7808 441)" class="st14 st15">Tb</text>
	<text transform="matrix(1 0 0 1 588.5562 441)" class="st14 st15">Ho</text>
	<text transform="matrix(1 0 0 1 631.6177 441)" class="st14 st15">Er</text>
	<text transform="matrix(1 0 0 1 666.7246 441)" class="st14 st15">Tm</text>
	<text transform="matrix(1 0 0 1 708.5562 441)" class="st14 st15">Yb</text>
	<text transform="matrix(1 0 0 1 749.7808 441)" class="st14 st15">Lu</text>
	<text transform="matrix(1 0 0 1 189.1738 481)" class="st14 st15">Ac</text>
	<text transform="matrix(1 0 0 1 229.7808 481)" class="st14 st15">Th</text>
	<text transform="matrix(1 0 0 1 271 481)" class="st14 st15">Pa</text>
	<text transform="matrix(1 0 0 1 314.0562 481)" class="st14 st15">U</text>
	<text transform="matrix(1 0 0 1 348.5562 481)" class="st14 st15">Np</text>
	<text transform="matrix(1 0 0 1 390.3823 481)" class="st14 st15">Pu</text>
	<text transform="matrix(1 0 0 1 425.5 481)" class="st14 st15">Am</text>
	<text transform="matrix(1 0 0 1 466.1069 481)" class="st14 st15">Cm</text>
	<text transform="matrix(1 0 0 1 509.1631 481)" class="st14 st15">Bk</text>
	<text transform="matrix(1 0 0 1 551 481)" class="st14 st15">Cf</text>
	<text transform="matrix(1 0 0 1 591 481)" class="st14 st15">Es</text>
	<text transform="matrix(1 0 0 1 629.3262 481)" class="st14 st15">Fm</text>
	<text transform="matrix(1 0 0 1 668.7192 481)" class="st14 st15">Md</text>
	<text transform="matrix(1 0 0 1 710.5562 481)" class="st14 st15">No</text>
	<text transform="matrix(1 0 0 1 753.6177 481)" class="st14 st15">Lr</text>
</g>
<g>
	<text transform="matrix(1 0 0 1 77.5 83)" class="st12 st13">氫</text>
	<text transform="matrix(1 0 0 1 757.5 83)" class="st12 st13">氦</text>
	<text transform="matrix(1 0 0 1 77.5 123)" class="st12 st13">鋰</text>
	<text transform="matrix(1 0 0 1 117.5 123)" class="st12 st13">鈹</text>
	<text transform="matrix(1 0 0 1 557.5 123)" class="st12 st13">硼</text>
	<text transform="matrix(1 0 0 1 597.5 123)" class="st12 st13">碳</text>
	<text transform="matrix(1 0 0 1 637.5 123)" class="st12 st13">氮</text>
	<text transform="matrix(1 0 0 1 677.5 123)" class="st12 st13">氧</text>
	<text transform="matrix(1 0 0 1 717.5 123)" class="st12 st13">氟</text>
	<text transform="matrix(1 0 0 1 757.5 123)" class="st12 st13">氖</text>
	<text transform="matrix(1 0 0 1 77.5 163)" class="st12 st13">鈉</text>
	<text transform="matrix(1 0 0 1 117.5 163)" class="st12 st13">鎂</text>
	<text transform="matrix(1 0 0 1 557.5 163)" class="st12 st13">鋁</text>
	<text transform="matrix(1 0 0 1 597.5 163)" class="st12 st13">矽</text>
	<text transform="matrix(1 0 0 1 637.5 163)" class="st12 st13">磷</text>
	<text transform="matrix(1 0 0 1 677.5 163)" class="st12 st13">硫</text>
	<text transform="matrix(1 0 0 1 717.5 163)" class="st12 st13">氯</text>
	<text transform="matrix(1 0 0 1 757.5 163)" class="st12 st13">氬</text>
	<text transform="matrix(1 0 0 1 77.5 203)" class="st12 st13">鉀</text>
	<text transform="matrix(1 0 0 1 117.5 203)" class="st12 st13">鈣</text>
	<text transform="matrix(1 0 0 1 157.5 203)" class="st12 st13">鈧</text>
	<text transform="matrix(1 0 0 1 197.5 203)" class="st12 st13">鈦</text>
	<text transform="matrix(1 0 0 1 237.5 203)" class="st12 st13">釩</text>
	<text transform="matrix(1 0 0 1 277.5 203)" class="st12 st13">鉻</text>
	<text transform="matrix(1 0 0 1 317.5 203)" class="st12 st13">錳</text>
	<text transform="matrix(1 0 0 1 357.5 203)" class="st12 st13">鐵</text>
	<text transform="matrix(1 0 0 1 397.5 203)" class="st12 st13">鈷</text>
	<text transform="matrix(1 0 0 1 437.5 203)" class="st12 st13">鎳</text>
	<text transform="matrix(1 0 0 1 477.5 203)" class="st12 st13">銅</text>
	<text transform="matrix(1 0 0 1 517.5 203)" class="st12 st13">鋅</text>
	<text transform="matrix(1 0 0 1 557.5 203)" class="st12 st13">鎵</text>
	<text transform="matrix(1 0 0 1 597.5 203)" class="st12 st13">鍺</text>
	<text transform="matrix(1 0 0 1 637.5 203)" class="st12 st13">砷</text>
	<text transform="matrix(1 0 0 1 677.5 203)" class="st12 st13">硒</text>
	<text transform="matrix(1 0 0 1 717.5 203)" class="st12 st13">溴</text>
	<text transform="matrix(1 0 0 1 757.5 203)" class="st12 st13">氪</text>
	<text transform="matrix(1 0 0 1 77.5 243)" class="st12 st13">銣</text>
	<text transform="matrix(1 0 0 1 117.5 243)" class="st12 st13">鍶</text>
	<text transform="matrix(1 0 0 1 157.5 243)" class="st12 st13">釔</text>
	<text transform="matrix(1 0 0 1 197.5 243)" class="st12 st13">鋯</text>
	<text transform="matrix(1 0 0 1 237.5 243)" class="st12 st13">鈮</text>
	<text transform="matrix(1 0 0 1 277.5 243)" class="st12 st13">鉬</text>
	<text transform="matrix(1 0 0 1 317.5 243)" class="st12 st13">鎝</text>
	<text transform="matrix(1 0 0 1 357.5 243)" class="st12 st13">釕</text>
	<text transform="matrix(1 0 0 1 397.5 243)" class="st12 st13">銠</text>
	<text transform="matrix(1 0 0 1 437.5 243)" class="st12 st13">鈀</text>
	<text transform="matrix(1 0 0 1 477.5 243)" class="st12 st13">銀</text>
	<text transform="matrix(1 0 0 1 517.5 243)" class="st12 st13">鎘</text>
	<text transform="matrix(1 0 0 1 557.5 243)" class="st12 st13">銦</text>
	<text transform="matrix(1 0 0 1 597.5 243)" class="st12 st13">錫</text>
	<text transform="matrix(1 0 0 1 637.5 243)" class="st12 st13">銻</text>
	<text transform="matrix(1 0 0 1 677.5 243)" class="st12 st13">碲</text>
	<text transform="matrix(1 0 0 1 717.5 243)" class="st12 st13">碘</text>
	<text transform="matrix(1 0 0 1 757.5 243)" class="st12 st13">氙</text>
	<text transform="matrix(1 0 0 1 77.5 283)" class="st12 st13">銫</text>
	<text transform="matrix(1 0 0 1 117.5 283)" class="st12 st13">鋇</text>
	<text transform="matrix(1 0 0 1 153 283)" class="st12 st13">鑭系</text>
	<text transform="matrix(1 0 0 1 197.5 283)" class="st12 st13">鉿</text>
	<text transform="matrix(1 0 0 1 237.5 283)" class="st12 st13">鉭</text>
	<text transform="matrix(1 0 0 1 277.5 283)" class="st12 st13">鎢</text>
	<text transform="matrix(1 0 0 1 317.5 283)" class="st12 st13">錸</text>
	<text transform="matrix(1 0 0 1 357.5 283)" class="st12 st13">鋨</text>
	<text transform="matrix(1 0 0 1 397.5 283)" class="st12 st13">銥</text>
	<text transform="matrix(1 0 0 1 437.5 283)" class="st12 st13">鉑</text>
	<text transform="matrix(1 0 0 1 477.5 283)" class="st12 st13">金</text>
	<text transform="matrix(1 0 0 1 517.5 283)" class="st12 st13">汞</text>
	<text transform="matrix(1 0 0 1 557.5 283)" class="st12 st13">鉈</text>
	<text transform="matrix(1 0 0 1 597.5 283)" class="st12 st13">鉛</text>
	<text transform="matrix(1 0 0 1 637.5 283)" class="st12 st13">鉍</text>
	<text transform="matrix(1 0 0 1 677.5 283)" class="st12 st13">釙</text>
	<text transform="matrix(1 0 0 1 717.5 283)" class="st12 st13">砈</text>
	<text transform="matrix(1 0 0 1 757.5 283)" class="st12 st13">氡</text>
	<text transform="matrix(1 0 0 1 77.5 323)" class="st12 st13">鍅</text>
	<text transform="matrix(1 0 0 1 117.5 323)" class="st12 st13">鐳</text>
	<text transform="matrix(1 0 0 1 153 323)" class="st12 st13">錒系</text>
	<text transform="matrix(1 0 0 1 197.5 323)" class="st12 st13">鑪</text>
	<text transform="matrix(1 0 0 1 397.5 323)" class="st12 st13">䥑</text>
	<text transform="matrix(1 0 0 1 437.5 323)" class="st12 st13">鐽</text>
	<text transform="matrix(1 0 0 1 477.5 323)" class="st12 st13">錀</text>
	<text transform="matrix(1 0 0 1 517.5 323)" class="st12 st13">鎶</text>
	<text transform="matrix(1 0 0 1 597.5 323)" class="st12 st13">鈇</text>
	<text transform="matrix(1 0 0 1 677.5 323)" class="st12 st13">鉝</text>
	<text transform="matrix(1 0 0 1 197.5 383)" class="st12 st13">鑭</text>
	<text transform="matrix(1 0 0 1 237.5 383)" class="st12 st13">鈰</text>
	<text transform="matrix(1 0 0 1 277.5 383)" class="st12 st13">鐠</text>
	<text transform="matrix(1 0 0 1 317.5 383)" class="st12 st13">釹</text>
	<text transform="matrix(1 0 0 1 357.5 383)" class="st12 st13">鉕</text>
	<text transform="matrix(1 0 0 1 397.5 383)" class="st12 st13">釤</text>
	<text transform="matrix(1 0 0 1 437.5 383)" class="st12 st13">銪</text>
	<text transform="matrix(1 0 0 1 477.5 383)" class="st12 st13">釓</text>
	<text transform="matrix(1 0 0 1 517.5 383)" class="st12 st13">鋱</text>
	<text transform="matrix(1 0 0 1 557.5 383)" class="st12 st13">鏑</text>
	<text transform="matrix(1 0 0 1 597.5 383)" class="st12 st13">鈥</text>
	<text transform="matrix(1 0 0 1 637.5 383)" class="st12 st13">鉺</text>
	<text transform="matrix(1 0 0 1 677.5 383)" class="st12 st13">銩</text>
	<text transform="matrix(1 0 0 1 717.5 383)" class="st12 st13">鐿</text>
	<text transform="matrix(1 0 0 1 757.5 383)" class="st12 st13">鎦</text>
	<text transform="matrix(1 0 0 1 197.5 423)" class="st12 st13">錒</text>
	<text transform="matrix(1 0 0 1 237.5 423)" class="st12 st13">釷</text>
	<text transform="matrix(1 0 0 1 277.5 423)" class="st12 st13">鏷</text>
	<text transform="matrix(1 0 0 1 317.5 423)" class="st12 st13">鈾</text>
	<text transform="matrix(1 0 0 1 357.5 423)" class="st12 st13">錼</text>
	<text transform="matrix(1 0 0 1 397.5 423)" class="st12 st13">鈽</text>
	<text transform="matrix(1 0 0 1 437.5 423)" class="st12 st13">鋂</text>
	<text transform="matrix(1 0 0 1 477.5 423)" class="st12 st13">鋦</text>
	<text transform="matrix(1 0 0 1 517.5 423)" class="st12 st13">鉳</text>
	<text transform="matrix(1 0 0 1 557.5 423)" class="st12 st13">鉲</text>
	<text transform="matrix(1 0 0 1 597.5 423)" class="st12 st13">鑀</text>
	<text transform="matrix(1 0 0 1 637.5 423)" class="st12 st13">鐨</text>
	<text transform="matrix(1 0 0 1 677.5 423)" class="st12 st13">鍆</text>
	<text transform="matrix(1 0 0 1 717.5 423)" class="st12 st13">鍩</text>
	<text transform="matrix(1 0 0 1 757.5 423)" class="st12 st13">鐒</text>
</g>
<g transform="translate(-0.5,-56.5)">
	<text transform="matrix(1 0 0 1 127 434)" class="st12 st16">鑭系元素</text>
	<text transform="matrix(1 0 0 1 127 472)" class="st12 st16">錒系元素</text>
</g>
<path d="M11,40.5h1v10h-2l2.5,4l2.5-4h-2v-10"/>
<path d="M51.5,32v1h10v-2l4,2.5l-4,2.5v-2h-10"/>
<text transform="matrix(1 0 0 1 565 308.1675)" class="st14 st15">Nh</text>
<text transform="matrix(1 0 0 1 643.7749 308.1681)" class="st14 st15">Mc</text>
<text transform="matrix(1 0 0 1 726.3569 308.1686)" class="st14 st15">Ts</text>
<text transform="matrix(1 0 0 1 764.3926 308.1683)" class="st14 st15">Og</text>
<text transform="matrix(1 0 0 1 557.5 322.6675)" class="st17 st13">鉨</text>
<text transform="matrix(1 0 0 1 638.5 322.6678)" class="st17 st13">鏌</text>
<text transform="matrix(0.69 0 0 1 721.4971 323)" class="st17 st13">田</text>
<text transform="matrix(1 0 0 1 756.4932 322.6675)" class="st17 st13">气</text>
<text transform="matrix(0.5 0 0 1 716.967 322.0826)" class="st17 st15">石</text>
<text transform="matrix(1.25 0 0 1 757.4099 322.9999)" class="st17 st18">奥</text>
<text transform="matrix(1 0 0 1 236.9 322.9998)" class="st17 st13">𨧀</text>
<text transform="matrix(1 0 0 1 277.5001 322.9996)" class="st17 st13">𨭎</text>
<text transform="matrix(1 0 0 1 316.9001 322.9998)" class="st17 st13">𨨏</text>
<text transform="matrix(1 0 0 1 357.5001 322.9998)" class="st17 st13">𨭆</text>
</svg>
